<?xml version="1.0" encoding="UTF-8"?>
<svg id="Camada_1" xmlns="http://www.w3.org/2000/svg" version="1.1" viewBox="0 0 1280 1024">
  <!-- Generator: Adobe Illustrator 30.3.0, SVG Export Plug-In . SVG Version: 2.1.3 Build 182)  -->
  <defs>
    <style>
      .st0 {
        fill: #2d2f37;
      }

      .st1 {
        fill: #2f3139;
      }

      .st2 {
        fill: #f9f9f9;
      }

      .st3 {
        fill: #35373e;
      }

      .st4 {
        fill: #252830;
      }

      .st5 {
        fill: #262831;
      }

      .st6 {
        fill: #f9f8f9;
      }

      .st7 {
        fill: #2b2d35;
      }

      .st8 {
        fill: #f8f8f9;
      }
    </style>
  </defs>
  <g id="Objeto_generativo">
    <g>
      <path class="st3" d="M413.89,523.93c.5-33.67-20.43-53.95-53.42-57.78-14.38-1.67-28.16-.5-43.37-.06l-.16-39.18,33.21.15c33.03-1.52,59.32-20.49,58.33-55-.67-23.24-14.55-42.06-37.12-48.61-33.34-9.67-71.31,1.56-84.86,35.54-2.55,6.39-4.15,12.58-5.29,19.26l-54.06-.48c5.49-44.44,31.24-79.87,74.87-94.23,51.56-16.97,122.76-7.94,151.54,42.51,11.92,22.93,14.43,49.14,6.01,73.5-8.12,23.49-27.61,39.34-51.41,45.96,32.63,6.14,55.52,30.27,60.68,62.43,6.15,38.3-9.58,75.15-41.71,96.73-37.7,25.33-89.9,27.92-132.78,13.28-38.79-14.38-66.31-47.67-72.26-88.78l56.71-1.52c3.71,23.59,19.14,42.46,41.91,50.09,17.64,5.41,36.42,5.93,53.84.12,23.84-7.95,38.94-28.8,39.31-53.93Z"/>
      <g>
        <polygon class="st1" points="685.02 743.72 650.34 743.75 612.3 693.11 592.94 713.04 592.9 744.18 563.99 744.07 563.94 618.46 593.04 618.37 592.87 679.22 649.21 618.14 683.53 618.56 630.79 673.82 685.02 743.72"/>
        <polygon class="st1" points="1057.89 745.88 1023.21 745.91 985.17 695.27 965.81 715.2 965.77 746.34 936.86 746.23 936.81 620.62 965.91 620.53 965.74 681.38 1022.07 620.3 1056.4 620.72 1003.65 675.98 1057.89 745.88"/>
        <path class="st4" d="M917.02,741.96c-27.42,11.98-59.42,6.74-83.23-9.56l12.46-21.77c19.94,16.98,59.81,19.96,63.98,2.55,1.05-4.39-2.41-10.39-7.55-11.87l-35.81-10.3c-9-2.59-17.94-6.64-23.61-14.97-12.23-17.98-4.58-41.74,15.46-51.23,23.85-11.3,52.72-7.57,75.38,5.82l-11.82,21.35c-20.64-13.59-54.93-13.82-56.79,2.13-.65,5.55,3.46,10.75,9.16,12.35l36.07,10.13c10.12,2.84,20.05,8.01,24.81,18.14,8.43,17.92.74,38.82-18.51,47.23Z"/>
        <polygon class="st0" points="709.75 743.12 680.9 743.73 680.81 618.4 709.9 617.99 709.75 743.12"/>
        <g>
          <path class="st7" d="M820.67,632.33c21.6,18.5,27.55,47.66,17.23,73.35-9.98,24.82-34.81,40.19-62.51,40.34-35.65.2-64.4-24.85-67.35-59.58-2.91-34.34,21.47-64.78,56.65-69.4,20.07-2.63,39.84,1.45,55.98,15.29Z"/>
          <path class="st6" d="M813.81,679.84c.66,22.86-15.52,41-37.67,41.25-22.12.25-39.17-16.81-39.34-39.69-.16-22.43,15.97-39.94,37.74-40.35,21.73-.41,38.62,16.39,39.27,38.79Z"/>
        </g>
      </g>
      <g>
        <path class="st5" d="M870.82,621.44c-21.9,6.21-43.87,6.9-66.4,3.37-33.79-5.3-62.55-24.13-81.74-52.35-35.75-52.58-38.86-131.63-22.8-192.56,12.9-48.92,45.83-89.4,96.32-100.5,26.85-5.9,54.48-5.32,80.66,3.2,27.3,8.89,49.45,27.53,64.67,51.82,30.44,48.57,33.75,122.3,21.63,178.01-10.92,50.17-41.65,94.63-92.33,109Z"/>
        <path class="st8" d="M904.33,519.97c-10.69,34.85-34.02,61.3-72.08,62.36-45.54,1.27-70.97-34.43-79.55-76.37-7.01-34.29-7.21-69.7-1.09-104.17,7.42-41.8,31-80.49,76.33-81.7,24.3-.65,45.85,9.67,60.21,29.37,21.73,29.81,25.78,72.98,25,110.32-.44,20.8-2.81,40.64-8.81,60.2Z"/>
      </g>
      <g>
        <path class="st0" d="M679.66,438.5c-2.11,41.8,3.82,87.28,24.47,124.12-13.16,29.29-38.06,50.99-69.05,59.42-24.05,6.54-49.03,6.46-73.15-.07-46.07-12.47-75.45-51.74-82.2-98.44-13.07-90.52,40.43-170.34,115.05-217.79,19.72-12.54,40.29-21.69,63.39-27.28,2.48,9.72,4.63,18.54,8.76,27.3-5.84,11.02-14.56,18.35-24.71,25.03-33.6,22.11-65.14,48.56-87.03,82.95-7.28,11.45-13.18,22.92-16.59,35.85,24.1-31.57,61.02-41.59,98.68-33.44,15.78,3.61,29.46,10.54,42.38,22.34Z"/>
        <path class="st2" d="M598.67,582.29c-38.51-.4-64.41-31.18-62.52-68.96,1.66-33.26,27.73-58.11,60.81-59.17,25.71-.82,48.87,12.36,59.42,36.02,8.01,17.96,7.94,38.5-.28,56.43-10.36,22.58-32.15,35.94-57.42,35.68Z"/>
      </g>
    </g>
  </g>
</svg>